:FULLY-SPECIFIED
:FORCE-ALL-JOINTS-BE-3DOF
:DEGREES
243
root 9.19908 16.24 -2.52989 10.0216 -4.7291 -3.58224
lfemur -46.63 9.50101 -21.6739
ltibia 42.4815 -0 0
lfoot -5.34629 4.97011 -0.00411143
ltoes -2.15157 0 0
rfemur 17.7415 3.60828 23.4037
rtibia 14.1566 -0 0
rfoot 6.66906 4.33074 0.00697165
rtoes -17.4794 0 0
lowerback -7.08647 2.01538 0.557465
upperback -2.60118 2.59964 2.30588
thorax 1.20144 1.30723 2.26717
lowerneck -18.7368 -6.10934 -14.0902
upperneck 17.0024 -7.72578 15.0673
head 9.64649 -2.98618 6.56582
lclavicle 1.03513e-14 1.19271e-14 0
lhumerus -47.3932 -5.11225 89.0451
lradius 19.8335 -0 0
lwrist -5.79239 0 0
lhand -7.42776 -23.4292 0.000247617
lfingers 7.12502 0 0
lthumb 18.4594 5.71496 0.000236553
rclavicle 1.03513e-14 1.19271e-14 0
rhumerus -45.9216 9.12394 -87.4858
rradius 43.7695 -0 0
rwrist -23.6022 0 0
rhand -30.6533 -22.541 9.74e-05
rfingers 7.12502 0 0
rthumb -3.94826 -52.4817 -6.03142e-05
244
root 9.23821 16.2697 -2.3725 9.9601 -5.01117 -3.13743
lfemur -45.8159 9.50281 -22.2343
ltibia 42.386 -0 0
lfoot -6.03012 5.05624 -0.00462541
ltoes -1.78028 0 0
rfemur 15.8426 3.09414 22.4635
rtibia 18.316 -0 0
rfoot 7.39233 4.46883 0.00784322
rtoes -16.9533 0 0
lowerback -6.9111 2.02357 0.24906
upperback -2.71815 2.63864 2.16626
thorax 0.974985 1.32948 2.28847
lowerneck -18.671 -6.04485 -14.056
upperneck 17.1213 -7.63898 14.9465
head 9.65337 -2.95777 6.53271
lclavicle 2.8979e-15 7.55382e-15 0
lhumerus -46.9838 -5.02713 88.8396
lradius 19.8643 -0 0
lwrist -6.16981 0 0
lhand -7.41125 -23.2143 0.000278569
lfingers 7.12502 0 0
lthumb 18.4753 5.92829 0.000266122
rclavicle 2.8979e-15 7.55382e-15 0
rhumerus -46.1426 8.90284 -87.3155
rradius 42.9674 -0 0
rwrist -23.1841 0 0
rhand -30.2779 -22.5373 0.000109575
rfingers 7.12502 0 0
rthumb -3.58578 -52.4841 -6.78537e-05
245
root 9.27734 16.2993 -2.21512 9.89642 -5.29277 -2.69212
lfemur -45.0018 9.51247 -22.7947
ltibia 42.2904 -0 0
lfoot -6.71394 5.14237 -0.00411143
ltoes -1.40898 0 0
rfemur 13.9532 2.54925 21.5412
rtibia 22.4755 -0 0
rfoot 8.1156 4.60691 0.00697165
rtoes -16.4272 0 0
lowerback -6.73578 2.03269 -0.059321
upperback -2.83523 2.67735 2.02656
thorax 0.74854 1.35182 2.30968
lowerneck -18.6053 -5.9804 -14.0217
upperneck 17.2401 -7.55193 14.8259
head 9.66024 -2.92936 6.49961
lclavicle -4.5555e-15 3.18055e-15 0
lhumerus -46.5748 -4.94055 88.6347
lradius 19.8951 -0 0
lwrist -6.54723 0 0
lhand -7.39475 -22.9995 0.000247617
lfingers 7.12502 0 0
lthumb 18.4911 6.14162 0.000236553
rclavicle -4.5555e-15 3.18055e-15 0
rhumerus -46.3641 8.68239 -87.1444
rradius 42.1653 -0 0
rwrist -22.766 0 0
rhand -29.9025 -22.5335 9.74e-05
rfingers 7.12502 0 0
rthumb -3.22329 -52.4864 -6.03142e-05
246
root 9.31647 16.3289 -2.05774 9.83052 -5.57386 -2.24629
lfemur -44.1878 9.52997 -23.3549
ltibia 42.1948 -0 0
lfoot -7.39776 5.22849 -0.00256955
ltoes -1.03769 0 0
rfemur 12.0735 1.97436 20.6379
rtibia 26.6349 -0 0
rfoot 8.83887 4.74497 0.0043571
rtoes -15.9012 0 0
lowerback -6.56051 2.04277 -0.367674
upperback -2.9524 2.71577 1.88678
thorax 0.5221 1.37424 2.3308
lowerneck -18.5395 -5.91598 -13.9874
upperneck 17.3587 -7.46463 14.7055
head 9.66709 -2.90094 6.46651
lclavicle -1.20089e-14 -1.19271e-15 0
lhumerus -46.1662 -4.85252 88.4305
lradius 19.9258 -0 0
lwrist -6.92465 0 0
lhand -7.37824 -22.7846 0.00015476
lfingers 7.12502 0 0
lthumb 18.507 6.35494 0.000147845
rclavicle -1.20089e-14 -1.19271e-15 0
rhumerus -46.5862 8.4626 -86.9726
rradius 41.3632 -0 0
rwrist -22.3478 0 0
rhand -29.5272 -22.5298 6.08744e-05
rfingers 7.12502 0 0
rthumb -2.86081 -52.4888 -3.7696e-05
247
root 9.3556 16.3586 -1.90036 9.76238 -5.85443 -1.79992
lfemur -43.374 9.55533 -23.9149
ltibia 42.0992 0 0
lfoot -8.08158 5.31458 0
ltoes -0.666402 0 0
rfemur 10.2037 1.37025 19.7541
rtibia 30.7944 0 0
rfoot 9.56213 4.88299 0
rtoes -15.3751 0 0
lowerback -6.38529 2.05378 -0.675997
upperback -3.06967 2.75391 1.74692
thorax 0.295667 1.39674 2.35183
lowerneck -18.4737 -5.85161 -13.953
upperneck 17.477 -7.37709 14.5853
head 9.67392 -2.87252 6.43342
lclavicle -1.94623e-14 -5.56597e-15 0
lhumerus -45.758 -4.76304 88.2269
lradius 19.9566 0 0
lwrist -7.30207 0 0
lhand -7.36173 -22.5698 0
lfingers 7.12502 0 0
lthumb 18.5229 6.56827 0
rclavicle -1.94623e-14 -5.56597e-15 0
rhumerus -46.8088 8.24347 -86.8
rradius 40.5611 0 0
rwrist -21.9297 0 0
rhand -29.1518 -22.5261 0
rfingers 7.12502 0 0
rthumb -2.49833 -52.4912 0
